<mxfile host="65bd71144e">
    <diagram id="rnE6R8RSfPIP3s2JW14d" name="Page-1">
        <mxGraphModel dx="1358" dy="790" grid="1" gridSize="10" guides="1" tooltips="1" connect="1" arrows="1" fold="1" page="1" pageScale="1" pageWidth="827" pageHeight="1169" math="0" shadow="0">
            <root>
                <mxCell id="0"/>
                <mxCell id="1" parent="0"/>
                <mxCell id="2" value="" style="whiteSpace=wrap;html=1;aspect=fixed;strokeColor=#0000CC;" vertex="1" parent="1">
                    <mxGeometry x="20" y="10" width="780" height="780" as="geometry"/>
                </mxCell>
                <mxCell id="3" value="Header" style="rounded=1;whiteSpace=wrap;html=1;" vertex="1" parent="1">
                    <mxGeometry x="40" y="30" width="730" height="100" as="geometry"/>
                </mxCell>
                <mxCell id="4" value="Footer" style="rounded=1;whiteSpace=wrap;html=1;" vertex="1" parent="1">
                    <mxGeometry x="45" y="670" width="730" height="100" as="geometry"/>
                </mxCell>
                <mxCell id="5" value="Product" style="whiteSpace=wrap;html=1;aspect=fixed;" vertex="1" parent="1">
                    <mxGeometry x="90" y="255" width="120" height="120" as="geometry"/>
                </mxCell>
                <mxCell id="6" value="Product" style="whiteSpace=wrap;html=1;aspect=fixed;" vertex="1" parent="1">
                    <mxGeometry x="260" y="255" width="120" height="120" as="geometry"/>
                </mxCell>
                <mxCell id="7" value="Product" style="whiteSpace=wrap;html=1;aspect=fixed;" vertex="1" parent="1">
                    <mxGeometry x="433.5" y="255" width="120" height="120" as="geometry"/>
                </mxCell>
                <mxCell id="8" value="Product" style="whiteSpace=wrap;html=1;aspect=fixed;" vertex="1" parent="1">
                    <mxGeometry x="600" y="255" width="120" height="120" as="geometry"/>
                </mxCell>
                <mxCell id="9" value="Product" style="whiteSpace=wrap;html=1;aspect=fixed;" vertex="1" parent="1">
                    <mxGeometry x="90" y="425" width="120" height="120" as="geometry"/>
                </mxCell>
                <mxCell id="10" value="Product" style="whiteSpace=wrap;html=1;aspect=fixed;" vertex="1" parent="1">
                    <mxGeometry x="260" y="425" width="120" height="120" as="geometry"/>
                </mxCell>
                <mxCell id="11" value="Product" style="whiteSpace=wrap;html=1;aspect=fixed;" vertex="1" parent="1">
                    <mxGeometry x="433.5" y="425" width="120" height="120" as="geometry"/>
                </mxCell>
                <mxCell id="12" value="Product" style="whiteSpace=wrap;html=1;aspect=fixed;" vertex="1" parent="1">
                    <mxGeometry x="600" y="425" width="120" height="120" as="geometry"/>
                </mxCell>
                <mxCell id="14" value="&lt;span&gt;Filter and Search Product&lt;/span&gt;" style="rounded=0;whiteSpace=wrap;html=1;" vertex="1" parent="1">
                    <mxGeometry x="60" y="160" width="710" height="60" as="geometry"/>
                </mxCell>
                <mxCell id="15" value="Barre de navigation" style="rounded=1;whiteSpace=wrap;html=1;" vertex="1" parent="1">
                    <mxGeometry x="160" y="570" width="490" height="60" as="geometry"/>
                </mxCell>
            </root>
        </mxGraphModel>
    </diagram>
</mxfile>